<?xml version="1.0" encoding="utf-8"?>
<!-- Generator: Adobe Illustrator 19.1.0, SVG Export Plug-In . SVG Version: 6.00 Build 0)  -->
<svg version="1.1" id="Layer_1" xmlns="http://www.w3.org/2000/svg" xmlns:xlink="http://www.w3.org/1999/xlink" x="0px" y="0px"
	 viewBox="0 0 779 699.6" style="enable-background:new 0 0 779 699.6;" xml:space="preserve">
<style type="text/css">
	.st0{fill:none;}
	.st1{fill:#FFFFFF;}
	.st2{fill:#FFF200;}
</style>
<g>
	<g>
		<g>
			<polygon class="st0" points="340.8,365.6 346.8,326.6 337.4,326.6 335,341.7 322.6,341.7 325,326.6 314.9,326.6 308.7,365.6 
				318.8,365.6 321.3,350.1 333.7,350.1 331.3,365.6 			"/>
			<polygon class="st0" points="364,357.1 353.2,357.1 358.1,326.6 348.6,326.6 342.5,365.6 362.6,365.6 			"/>
			<g>
				<polygon class="st0" points="387.1,326.6 361.8,326.6 360.4,335.2 368.8,335.2 365.4,357.1 365.4,357.1 364,365.6 364,365.6 
					364,365.6 374.2,365.6 379,335.2 385.7,335.2 				"/>
				<polygon class="st0" points="414,326.6 400.8,350.4 395.2,326.6 388.7,326.6 388.3,326.6 386.7,336.8 394.3,365.6 402.2,365.6 
					425.1,326.6 				"/>
			</g>
		</g>
		<g>
			<path class="st0" d="M420.4,362.9c-0.3,2.1-2.3,3.8-4.4,3.8s-3.6-1.8-3.2-3.8c0.3-2.1,2.3-3.8,4.4-3.8S420.8,360.8,420.4,362.9z"
				/>
			<path class="st0" d="M439.2,356.2c-0.8,5.2-3.3,10.6-9.5,10.6c-6,0-6.9-5.4-6-10.6c0.8-5.2,3.3-10.6,9.5-10.6
				C439.2,345.4,440,350.9,439.2,356.2z M429.5,356.2c-0.1,1.2-0.8,5.5,1.2,5.5c1.9,0,2.7-4.3,2.9-5.5s0.8-5.5-1.2-5.5
				S429.6,354.9,429.5,356.2z"/>
			<path class="st0" d="M449,345.9l-0.4,2.5h0.1c1.4-1.8,2.9-3,5.2-3.2l-0.8,5.5c-0.3,0-0.5-0.1-0.8-0.1c-3.8,0-4.3,2.5-4.7,5.5
				l-1.6,10.2h-6l3.2-20.3h5.8V345.9z"/>
			<path class="st0" d="M457.2,368.9c-0.1,1.2,0,2.9,1.6,2.9c2.5,0,2.7-3.8,3-5.6l0.4-2.6h-0.1c-0.5,0.7-1.1,1.5-1.6,2.1
				c-0.7,0.5-1.5,1-2.5,1c-2.1,0-3.2-1.6-3.8-3.4c-0.7-2.1-0.5-4.7-0.3-6.9c0.5-3.6,2.3-10.8,7.3-10.8c1.9,0,3,1.2,3.4,2.9h0.1
				l0.4-2.5h5.6l-3.6,22.1c-1,5.9-4,8.4-8.9,8.4c-4.8,0-6.6-2.7-6.2-7.4L457.2,368.9L457.2,368.9z M463.8,356
				c0.1-1.1,0.8-5.5-1.1-5.5s-2.7,4.3-2.9,5.5s-0.8,5.5,1.2,5.5C462.8,361.5,463.5,357.1,463.8,356z"/>
		</g>
	</g>
	<path d="M745.1,32.8c-9.2-11.5-24.7-16-38.9-14c-5.7,0.6-11.3,2.1-16.8,3.9c-206.8,67.7-413.7,135-620.5,202.8
		c-32.1,10.8-54.8,42.6-54.4,76.5c1.3,106.7,3.1,213.5,4.7,320.2c0.3,22.1,9.2,47.7,31.7,56.1c22.4,9.1,45.2-2.8,66.4-9.6
		c195.6-66.6,391.3-133.2,586.9-199.8c16.9-5.4,33.3-15.5,42-31.5c9.6-17,10.7-37,10.7-56.1c0.4-100.9,1.2-201.7,1.6-302.6
		C758.3,62.9,755.6,45.6,745.1,32.8z"/>
	<g>
		<path class="st1" d="M708.8,16.1c14.3-2,30,2.6,39.2,14.1c10.6,12.9,13.3,30.3,13.5,46.5c-0.4,101.7-1.2,203.3-1.6,305
			c0,19.2-1.2,39.4-10.8,56.5c-8.8,16-25.3,26.3-42.4,31.7c-197.2,67.1-394.4,134.2-591.6,201.4c-21.4,6.8-44.3,18.8-66.9,9.6
			c-22.6-8.5-31.6-34.2-31.9-56.5c-1.6-107.6-3.4-215.2-4.7-322.8c-0.4-34.1,22.5-66.3,54.8-77.1c208.4-68.3,417-136.2,625.5-204.5
			C697.3,18.2,703,16.7,708.8,16.1z M711.8,23.1c-13.4,1.1-25.7,6.9-38.4,10.7c-199,65-398,130-597,195
			C51,235.6,28.2,255,21.8,281.1c-5.2,18.1-2.3,37.2-2.6,55.7c1.4,92.7,2.8,185.4,4.1,278.1c-0.1,17,1.6,35.6,13,49.1
			c11.5,13.8,31.7,15.7,47.8,10.3c207.1-70.5,414.2-141,621.3-211.5c14.2-4.7,28-13,36.1-26c9.5-15.5,10.9-34.2,11.1-52
			c0.2-104.8,1.7-209.6,1.4-314.4C754.8,46.9,738.5,19.1,711.8,23.1z"/>
	</g>
	<path class="st1" d="M676.1,372.9c9.6-3.1,19-6.7,28.7-9.5c1,2.3,1.7,4.6,2.3,7c-7.2,2.4-14.3,4.9-21.5,7.2c2,5.9,3.9,11.9,6,17.8
		c5.9-1.9,11.7-4,17.6-5.9c1.2,2.3,2.2,4.7,2.3,7.3c-5.8,2-11.7,3.9-17.5,6c2,5.9,4,11.8,6,17.7c7.2-2.3,14.3-4.9,21.5-7.2
		c1,2.3,1.9,4.7,2.2,7.2c-9.5,3.3-19,6.7-28.6,9.6C688.8,411.1,682.2,392.1,676.1,372.9z"/>
	<g>
		<path class="st1" d="M628.5,388.7c8.4-1.9,17.3-9,25.8-3.7c10.4,4.9,12.5,20.5,4.2,28.2c6,7.7,12.4,15.2,18.2,23.1
			c-12.8,7.6-17.4-12.6-25.8-19.1c-1.4,0.5-2.8,1-4.2,1.4c2.7,8.4,5.8,16.6,8.3,25.1c-2.3,0.8-4.6,1.7-6.9,2.4
			C641.1,427.2,635,407.9,628.5,388.7z M638.2,393.6c1.9,5.9,4,11.8,6,17.8c6.7-0.8,14-6.6,10.9-14
			C652.5,390.2,643.8,390.4,638.2,393.6z"/>
	</g>
	<path class="st1" d="M581.6,404.8c9.6-3.2,19.1-6.7,28.8-9.5c0.9,2.3,1.7,4.6,2.2,7c-7.1,2.5-14.3,4.8-21.4,7.3
		c1.9,5.9,4,11.8,6,17.8c6-1.9,11.8-4.2,17.8-5.8c1,2.3,1.8,4.6,2.3,7.1c-5.8,2.2-11.8,4.1-17.6,6c1.9,6,3.9,11.8,6,17.7
		c7.2-2.3,14.2-4.9,21.5-7.1c1.1,2.3,1.8,4.7,2.4,7.1c-9.4,3.5-19,6.5-28.6,9.7C594.2,443.1,588,423.9,581.6,404.8z"/>
	<path class="st1" d="M543,419.3c7.3-7.9,22.2-4.6,25.2,5.9c-2.3,1-4.6,1.7-6.9,2.4c-3-7.7-15.9-5.7-14.9,3.1
		c3.2,10.9,7,21.6,10.8,32.2c4.7,7.2,16.1,1.2,13.8-6.9c2.3-0.8,4.5-1.5,6.9-2.2c7.2,17.7-22,28.4-28.3,10.8
		C547,450,532.1,433.3,543,419.3z"/>
	<path class="st1" d="M508.5,429.2c2.3-0.8,4.6-1.6,7-2.4c6.9,19,13,38.2,19.5,57.3c-2.2,1.2-4.6,1.9-7,2.4
		c-9-10.4-17.7-21.1-26.7-31.5c3.9,12.2,8.4,24.3,12.1,36.6c-2.3,0.8-4.6,1.6-7,2.4c-6.8-19-13-38.2-19.5-57.3
		c2.2-1.1,4.5-1.9,6.9-2.6c9.1,10.4,17.8,21.2,26.8,31.7C516.8,453.6,512.3,441.5,508.5,429.2z"/>
	<path class="st1" d="M439.7,452.5c9.5-3.2,19-6.6,28.6-9.5c1,2.3,1.8,4.6,2.4,7c-3.5,1.4-7.1,2.5-10.6,3.7
		c4.8,14.3,9.7,28.5,14.4,42.8c3.5-1.2,7-2.5,10.6-3.5c1.1,2.2,1.9,4.6,2.5,7.1c-9.5,3.4-19,6.7-28.6,9.6c-0.9-2.3-1.7-4.7-2.4-7.1
		c3.5-1.3,7.1-2.4,10.6-3.6c-4.8-14.3-9.6-28.6-14.5-42.9c-3.5,1.2-7,2.6-10.6,3.5C441.1,457.4,440.4,455,439.7,452.5z"/>
	<path class="st1" d="M415,460.8c2.3-1.1,4.8-1.8,7.3-2.4c2.9,20.3,5.7,40.7,8.2,61.1c-2.1,1-4.4,1.7-6.7,2.2
		c-10.4-17.7-20.4-35.7-30.5-53.5c2.5-0.7,5-2.9,7.7-1.9c6.4,10.4,11.5,21.7,18.6,31.6C418.6,485.5,416.4,473.2,415,460.8z"/>
	<g>
		<path class="st1" d="M341.9,473.2c34.1-4.6,61.9,35.5,45.8,65.8c-13.2,31.2-61,35.5-79.4,7C287.1,518.9,307.6,474.6,341.9,473.2z
			 M338.8,476.1c-22.1,3.2-39.1,25.4-36.2,47.6c1.8,21,20.7,38.7,41.8,39.1c29.3,2.2,53.5-30.2,42.9-57.6
			C380.9,485.5,359.2,472.3,338.8,476.1z"/>
	</g>
	<path class="st1" d="M345.7,493.4c-8-2.2-1.6-22.4,4.5-11c-6.2-3.8-6.5,2.9-5.6,8.5c0.5,0.2,1.5,0.6,1.9,0.8
		c0.4-0.4,1.2-1.2,1.7-1.6l-2.1-0.3c0-0.5,0.1-1.4,0.1-1.9c1,0,2.9,0,3.9,0C350.2,490.4,348.9,493.8,345.7,493.4z"/>
	<path class="st1" d="M329.1,482.4c2.3-0.9,4.6-1.7,6.9-2.5c0.1,0.4,0.4,1.4,0.6,1.8c-0.6,0.2-1.9,0.7-2.5,1c1.2,3.3,2.4,6.7,3.6,10
		c0.8-0.3,1.7-0.6,2.5-0.9c0.2,0.4,0.5,1.4,0.7,1.8c-2.4,0.9-4.8,1.8-7.3,2.5c-0.3-1.6,0.4-2.6,2.1-2.9c-1.2-3.3-2.4-6.6-3.5-9.9
		c-0.7,0.2-2,0.6-2.6,0.8L329.1,482.4z"/>
	<g>
		<path class="st1" d="M351.1,494c3-4.1,4.4-11.7,9.2-13c-1.4,4.8,0,11.6-3.4,15c-0.2-0.7-0.5-2.2-0.7-2.9
			C354.4,492.6,352.8,493.8,351.1,494z M357.3,487.4"/>
	</g>
	<path class="st1" d="M317.8,490.1c1.9-1.7,3.9-3.3,6-4.8c1.1,1.4,0.3,2.5-1,3.5c1.7,3.7,8.6,7.1,6.6,11.1c-2.9-3.2-5.5-6.7-8.2-10
		c-0.7,0.6-1.4,1.1-2.1,1.7C318.8,491.2,318.2,490.5,317.8,490.1z"/>
	<path class="st1" d="M359.4,496.9c3.1-4,6.1-8,9.4-11.8c1.5,1.1,1.5,2.7,1.1,4.4c1.5-0.8,3.1-1,4.5,0.2c-3.1,3.9-6.1,7.9-9.4,11.7
		c-2.6-3.3,4.1-6.6,5.4-9.8c-1,0.4-2,0.7-3,1.1c0.1-0.8,0.3-2.4,0.4-3.2C364.9,491.4,363.3,498.6,359.4,496.9z"/>
	<path class="st1" d="M377.1,496l1.7-1c0.7,2.4,5.5,5.6,2.3,7.4c-0.4-0.6-1.1-1.8-1.5-2.4c-3,1.8-6,3.7-9,5.5c0.4,0.6,1,1.8,1.4,2.4
		c-0.4,0.2-1.3,0.7-1.7,0.9c-0.6-2.3-5.4-5.5-2.3-7.4c0.4,0.6,1.2,1.8,1.5,2.4c3-1.8,6-3.7,9-5.5C378.1,497.5,377.6,496.8,377.1,496
		z"/>
	<path class="st1" d="M311.1,498.8c0.3-0.4,0.9-1.2,1.1-1.7c3.4,2.4,6.9,4.8,10.3,7.3c1-1.5,2.1-2.9,3.1-4.4c0.4,0.3,1.2,0.8,1.6,1
		c-1.4,2.1-2.8,4.1-4.2,6.1C319,504.4,315.1,501.6,311.1,498.8z"/>
	<path class="st1" d="M307.2,506.4c3.5-2.8,19,1.8,12.2,8.2c-4-0.1-12.1-0.5-13.1-4.6c4.2,0,9.7,4.6,13.1,1.7
		C317.7,507.6,310.9,508.7,307.2,506.4z"/>
	<path class="st1" d="M370.9,510.5c4.9-1,9.7-2.1,14.6-2.9c0,3.9-5.6,4.5-7.9,7c2.9-0.6,5.8-1.2,8.7-1.8c0.1,0.5,0.4,1.4,0.5,1.9
		c-5,0.5-10.3,3.5-15.2,2.1c2.3-2.6,5.6-4.1,8.4-6.1c-2.9,0.5-5.7,1.1-8.6,1.7C371.2,511.9,371,510.9,370.9,510.5z"/>
	<path class="st1" d="M331.5,510.8c2.8-0.8,11.7,0.8,4.6,2c0,4.2,0,8.3,0,12.5c-0.5,0-1.4,0-1.9,0c0-4.2,0-8.4,0-12.6
		c-0.7,0-2.1,0-2.7,0C331.5,512.2,331.5,511.3,331.5,510.8z"/>
	<path class="st1" d="M341.4,510.8c0.5,0,1.4,0,1.9,0c0,2.1,0,4.1,0,6.2c0.9,0,2.6,0,3.5,0c0-2.1,0-4.2,0-6.2c0.5,0,1.4,0,1.9,0
		c-0.9,4.8,1.8,11.6-1.6,15c-0.3-2.2-0.3-4.5-0.3-6.8c-1.2,0-2.3,0-3.5,0c0,2.3,0,4.5-0.2,6.8C339.5,522.4,342.2,515.6,341.4,510.8z
		"/>
	<path class="st1" d="M351.5,510.8c2.5,0,5,0,7.5,0c0,0.5,0,1.4,0,1.9c-1.8,0-3.6,0-5.5,0c0,1.5,0,2.9,0,4.4c1.5,0,3,0,4.5,0l0,2
		c-1.5,0-3,0-4.5,0c0,1.5,0,2.9,0,4.4c1.8,0,3.7,0,5.5,0l0,1.9c-2.5,0-4.9,0-7.3,0C351.4,520.5,351.8,515.6,351.5,510.8z"/>
	<path class="st1" d="M251.2,526.8c-0.9-16.6,25.1-20.9,29.7-5c-2.2,1.2-4.6,1.9-7,2.7c-3.5-9.8-19.4-3.5-14.1,6
		c7.3,7.1,18.9,7.9,27,14c6.3,6,6.1,17.4-0.9,22.8c-7.6,7-21.4,3.1-24.2-6.8c2.3-0.9,4.7-1.7,7.1-2.4c3.6,9.9,19.3,2.9,13.9-6.3
		C273.1,542.8,251.9,543.8,251.2,526.8z"/>
	<path class="st1" d="M305.2,518.9c4.9-0.6,9.9-0.8,14.8-1.2c0,0.5,0,1.5,0,2c-3.6,0.2-7.2,0.5-10.8,0.8c1,0.5,2.1,1.1,3.1,1.6
		c-0.7,0.5-2.1,1.4-2.8,1.9c3.6-0.2,7.3-0.5,11-0.8c0,0.5,0,1.5,0,1.9c-4.8,0.3-9.6,0.8-14.4,1.1c-0.1-0.5-0.1-1.5-0.2-2
		c0.8-0.6,1.6-1.2,2.4-1.8C306.7,521.7,305.5,520.7,305.2,518.9z"/>
	<path class="st1" d="M376.8,527.7c-7.8,0.3-4.9-11,1.9-7.3c6.4-2.1,11.2,7.6,3.1,8.2c0.5-1.9,2.4-2.9,2.8-4.8
		c-3.1-0.8-12.6-4.3-10.2,1.9c0.7-0.5,2.2-1.5,2.9-2C377.2,525,377,526.3,376.8,527.7z"/>
	<path class="st1" d="M221.9,525.9c2.3-0.9,4.7-1.7,7.1-2.5c5.3,15.4,10.8,30.8,15.4,46.4c2.4,15.2-20.1,23.3-28,10.2
		c-6-15.3-10.7-31.2-16.1-46.8c2.4-0.9,4.7-1.8,7.2-2.3c5.3,14.8,10,29.8,15.3,44.6c3.7,6.8,15.5,2.7,13.8-5.1
		C232,555.5,226.6,540.8,221.9,525.9z"/>
	<path class="st1" d="M328.2,530.3c2.2,2.2,4.3,4.6,6.4,7c-0.5,0.4-1.4,1.2-1.9,1.6c-0.8-0.8-1.6-1.7-2.3-2.5
		c-4,3.6-7.9,7.3-12,10.9c-0.4-0.5-1.2-1.4-1.6-1.9c3.9-3.7,7.9-7.2,11.9-10.8c-0.7-0.9-1.5-1.7-2.2-2.6
		C326.9,531.5,327.8,530.7,328.2,530.3z"/>
	<path class="st1" d="M314.9,532.1"/>
	<path class="st1" d="M361.5,533.3c0.5-0.5,1.5-1.4,2-1.8c4.2,4.5,8.5,8.9,12.8,13.4c-0.4,0.4-1.3,1.3-1.8,1.7
		c-3.3-3.2-6.4-6.8-9.7-10c0.2,1,0.7,3.1,1,4.1c-1.4-0.4-2.8-0.8-4.2-1.2c3.2,3.4,6.5,6.8,9.7,10.2c-0.6,0.6-1.2,1.1-1.8,1.7
		c-4.3-4.4-8.6-8.9-12.8-13.3c0.4-0.5,1.4-1.4,1.8-1.9c1.3,0.3,2.6,0.7,3.9,1.1C362.1,535.9,361.8,534.6,361.5,533.3z"/>
	<path class="st1" d="M375.3,536c-5.8-2.7,2.8-7.7,2.2-1.4C376.9,534.9,375.8,535.6,375.3,536z"/>
	<path class="st1" d="M154.3,548.6c9.5-3.3,18.9-6.5,28.4-9.6c1.2,2.3,1.9,4.7,2.5,7.2c-3.5,1.2-7.1,2.4-10.6,3.6
		c5.6,16.8,11.6,33.4,16.8,50.3c-2.3,0.8-4.6,1.6-7,2.3c-6.2-16.6-11.4-33.5-17.2-50.2c-3.5,1.2-7,2.6-10.7,3.5
		C155.6,553.4,154.7,551.1,154.3,548.6z"/>
	<path class="st1" d="M335.9,538.2c3,0.9,6,1.8,9,2.8c-0.2,0.6-0.5,1.7-0.6,2.3c-2.2-0.7-4.5-1.3-6.7-2c-0.6,1.8-1.1,3.5-1.7,5.3
		c1.8,0.6,3.7,1.2,5.5,1.8c-0.2,0.6-0.6,1.7-0.8,2.3c-1.8-0.5-3.7-1.1-5.5-1.7c-0.5,1.8-1.1,3.6-1.6,5.3c2.2,0.7,4.4,1.4,6.6,2.1
		c-0.2,0.6-0.5,1.7-0.7,2.3c-3-0.9-6-1.8-9-2.8C332.2,549.9,334,544,335.9,538.2z"/>
	<g>
		<path class="st1" d="M349.7,539.9c0.6,0,1.7-0.1,2.2-0.2c2.5,5.7,5.2,11.4,7.6,17.2c-1.8,0.7-3,0.1-3.6-1.6
			c-1,0.2-2.1,0.4-3.1,0.6c0.4,1.9-0.6,2.9-2.4,3.1C350.1,552.7,349.8,546.3,349.7,539.9z M352.4,547c0,2.2,0.1,4.3,0.1,6.5
			c0.6-0.1,1.9-0.4,2.6-0.6C354.2,551,353.4,549,352.4,547z"/>
	</g>
	<g>
		<path class="st1" d="M126.2,558.6c2.2-1.1,4.4-1.8,6.8-2.3c10.1,17.7,20.3,35.5,30.3,53.2c-2.4,1-4.9,1.9-7.4,2.5
			c-1.2-2.2-2.4-4.3-3.7-6.5c-3.9,1-7.7,2.4-11.5,3.8c0.3,2.5,0.7,5,0.9,7.5c-2.3,0.9-4.7,1.7-7.1,2.4
			C131.2,599.2,128.9,578.9,126.2,558.6z M137.2,579.9c-0.1,7.2,1.5,14.3,2.4,21.5c2.8-0.8,5.6-1.7,8.2-2.8
			C144.7,592.2,141.2,585.9,137.2,579.9z"/>
	</g>
	<path class="st1" d="M89.9,570.3c2.3-0.8,4.6-1.6,6.9-2.4c6.8,19,13.1,38.3,19.5,57.5c-2.3,0.9-4.6,1.7-7,2.3
		c-9.1-10.4-17.8-21.1-26.8-31.6c4,12.2,8.4,24.4,12.2,36.7c-2.3,0.8-4.6,1.6-7,2.4c-6.9-19-13.1-38.2-19.5-57.3
		c2.2-1.1,4.6-1.8,7-2.4c9.1,10.5,17.8,21.2,26.8,31.7C98.1,594.8,93.6,582.7,89.9,570.3z"/>
	<g>
		<g>
			<path d="M711.8,23.1c26.7-4,43,23.8,42.2,47.3c0.2,104.8-1.2,209.6-1.4,314.4c-0.1,17.8-1.5,36.5-11.1,52
				c-8.1,13-21.9,21.3-36.1,26c-207.1,70.5-414.2,141-621.3,211.5c-16.2,5.4-36.4,3.5-47.8-10.3c-11.4-13.5-13.1-32.1-13-49.1
				c-1.4-92.7-2.7-185.4-4.1-278.1c0.3-18.6-2.5-37.6,2.6-55.7c6.5-26.1,29.2-45.5,54.6-52.3c199-65.1,398-130,597-195
				C686.1,30,698.5,24.2,711.8,23.1z M595.6,99.1c0.5,91,1.8,182,2.5,273.1c33.9-10.4,67.3-22.5,101-33.8
				c0.1-91.5,1.1-183.1,0.8-274.6C665.1,75.4,630.4,87.3,595.6,99.1z M480.8,137.2c0,30.5,0.1,60.9,0.3,91.4
				c34.2,43.8,67.9,88.1,102.5,131.5c0.4-85.5-0.7-171.4-1.8-257.1C548.2,114.4,514.5,125.8,480.8,137.2z M366.2,176.7
				c0.5,29,0.4,57.9,1.1,86.9c16.1,22.5,33.3,44.4,49.9,66.6c-16.4,5.8-32.8,11.3-49.1,17.1c0.2,18,0.4,35.9,0.6,53.8
				c27.3-8.5,54.2-18.2,81.3-27.3c9.9,12.9,19.6,26,29.5,38.9c33.7-11.5,67.6-22.7,101.2-34.6c-55.9-72.4-112-144.6-168.3-216.6
				C396.9,165.9,381.6,171.6,366.2,176.7z M253.9,215.1c0.7,32.8,1.4,65.7,2.5,98.5c32.4,42.3,65.7,84.1,98.5,126.1
				c1.7-1.2,1-3.4,1.1-5c-1.1-84.4-1.6-168.7-2.9-253.1C320,192.4,287,203.9,253.9,215.1z M67.1,278.9c0.6,91.2,1,182.4,2.1,273.6
				c33.8-11.3,67.6-22.8,101.4-34.3c0.3-91.5,1-183,0.9-274.6C136.6,255.2,101.9,267.2,67.1,278.9z M184.8,245.4
				c-0.3,53-0.6,106.1-0.6,159.1c21.7,28.8,43.8,57.4,65.9,86c33.6-11.5,67.2-22.6,100.8-34.2c-53.6-69.5-108.2-138.3-162.2-207.6
				C187.6,247.3,186.6,245.8,184.8,245.4z M676.1,372.9c6.1,19.1,12.7,38.1,19.2,57.2c9.6-2.9,19.1-6.3,28.6-9.6
				c-0.4-2.5-1.3-4.9-2.2-7.2c-7.2,2.2-14.3,4.8-21.5,7.2c-2-5.9-4-11.8-6-17.7c5.8-2,11.7-3.9,17.5-6c-0.1-2.6-1.1-5-2.3-7.3
				c-5.9,1.9-11.7,4-17.6,5.9c-2.1-5.9-4-11.8-6-17.8c7.2-2.4,14.3-4.8,21.5-7.2c-0.6-2.4-1.3-4.8-2.3-7
				C695.2,366.3,685.7,369.9,676.1,372.9z M628.5,388.7c6.5,19.2,12.6,38.5,19.6,57.5c2.3-0.8,4.6-1.6,6.9-2.4
				c-2.5-8.5-5.6-16.7-8.3-25.1c1.4-0.5,2.8-1,4.2-1.4c8.4,6.5,13,26.8,25.8,19.1c-5.9-7.9-12.2-15.4-18.2-23.1
				c8.3-7.8,6.2-23.4-4.2-28.2C645.8,379.7,636.8,386.8,628.5,388.7z M581.6,404.8c6.5,19.1,12.6,38.3,19.4,57.2
				c9.5-3.2,19.1-6.2,28.6-9.7c-0.6-2.4-1.3-4.8-2.4-7.1c-7.2,2.2-14.3,4.8-21.5,7.1c-2-5.9-4.1-11.8-6-17.7c5.9-2,11.8-3.8,17.6-6
				c-0.5-2.4-1.3-4.8-2.3-7.1c-6.1,1.6-11.9,3.9-17.8,5.8c-1.9-5.9-4-11.8-6-17.8c7.1-2.4,14.3-4.7,21.4-7.3c-0.5-2.4-1.3-4.7-2.2-7
				C600.7,398.1,591.2,401.7,581.6,404.8z M543,419.3c-10.9,14,3.9,30.7,6.5,45.4c6.3,17.6,35.5,6.9,28.3-10.8
				c-2.3,0.6-4.6,1.4-6.9,2.2c2.3,8.1-9.1,14.1-13.8,6.9c-3.8-10.7-7.6-21.4-10.8-32.2c-1.1-8.8,11.8-10.9,14.9-3.1
				c2.3-0.7,4.7-1.4,6.9-2.4C565.3,414.7,550.3,411.3,543,419.3z M508.5,429.2c3.8,12.3,8.3,24.4,12.1,36.7
				c-9-10.5-17.7-21.3-26.8-31.7c-2.4,0.7-4.7,1.4-6.9,2.6c6.4,19.1,12.6,38.3,19.5,57.3c2.3-0.8,4.7-1.5,7-2.4
				c-3.7-12.3-8.2-24.4-12.1-36.6c9,10.4,17.6,21.1,26.7,31.5c2.4-0.5,4.8-1.2,7-2.4c-6.5-19.1-12.6-38.4-19.5-57.3
				C513.2,427.6,510.9,428.4,508.5,429.2z M439.7,452.5c0.6,2.4,1.4,4.8,2.4,7.1c3.6-0.9,7.1-2.2,10.6-3.5
				c4.9,14.3,9.6,28.6,14.5,42.9c-3.5,1.2-7.1,2.3-10.6,3.6c0.7,2.4,1.4,4.8,2.4,7.1c9.6-2.9,19.1-6.2,28.6-9.6
				c-0.6-2.4-1.4-4.8-2.5-7.1c-3.6,1-7.1,2.3-10.6,3.5c-4.8-14.3-9.6-28.6-14.4-42.8c3.5-1.2,7.1-2.3,10.6-3.7
				c-0.6-2.4-1.4-4.8-2.4-7C458.7,445.9,449.2,449.3,439.7,452.5z M415,460.8c1.4,12.4,3.6,24.7,4.6,37.1
				c-7.1-10-12.2-21.2-18.6-31.6c-2.7-1-5.2,1.3-7.7,1.9c10.2,17.8,20.1,35.8,30.5,53.5c2.3-0.5,4.5-1.2,6.7-2.2
				c-2.5-20.4-5.3-40.7-8.2-61.1C419.8,459,417.4,459.7,415,460.8z M341.9,473.2c-34.3,1.5-54.8,45.7-33.6,72.8
				c18.4,28.5,66.2,24.3,79.4-7C403.8,508.6,375.9,468.6,341.9,473.2z M251.2,526.8c0.7,17,21.8,16,31.4,24.9
				c5.4,9.2-10.3,16.2-13.9,6.3c-2.4,0.7-4.8,1.5-7.1,2.4c2.8,9.9,16.6,13.8,24.2,6.8c7-5.4,7.2-16.8,0.9-22.8
				c-8.1-6.2-19.7-7-27-14c-5.3-9.5,10.6-15.7,14.1-6c2.4-0.8,4.8-1.5,7-2.7C276.3,505.9,250.3,510.2,251.2,526.8z M221.9,525.9
				c4.7,14.9,10,29.6,14.8,44.5c1.6,7.7-10.1,11.8-13.8,5.1c-5.4-14.8-10.1-29.8-15.3-44.6c-2.5,0.5-4.9,1.4-7.2,2.3
				c5.3,15.6,10.1,31.5,16.1,46.8c7.9,13.1,30.4,5,28-10.2c-4.6-15.6-10.1-31-15.4-46.4C226.6,524.1,224.2,525,221.9,525.9z
				 M154.3,548.6c0.4,2.5,1.3,4.8,2.2,7.1c3.6-0.9,7.1-2.2,10.7-3.5c5.8,16.7,11,33.7,17.2,50.2c2.3-0.8,4.7-1.5,7-2.3
				c-5.2-16.9-11.2-33.5-16.8-50.3c3.5-1.2,7.1-2.3,10.6-3.6c-0.6-2.5-1.3-4.9-2.5-7.2C173.2,542.1,163.7,545.3,154.3,548.6z
				 M126.2,558.6c2.7,20.3,5.1,40.6,8.3,60.8c2.4-0.7,4.7-1.5,7.1-2.4c-0.2-2.5-0.5-5-0.9-7.5c3.8-1.5,7.6-2.8,11.5-3.8
				c1.2,2.1,2.5,4.3,3.7,6.5c2.5-0.7,5-1.5,7.4-2.5c-10-17.8-20.1-35.5-30.3-53.2C130.6,556.8,128.3,557.5,126.2,558.6z M89.9,570.3
				c3.7,12.4,8.2,24.5,12.2,36.8c-9-10.5-17.7-21.3-26.8-31.7c-2.4,0.6-4.8,1.2-7,2.4c6.4,19.1,12.6,38.4,19.5,57.3
				c2.3-0.8,4.7-1.6,7-2.4c-3.8-12.3-8.2-24.4-12.2-36.7c9,10.5,17.7,21.2,26.8,31.6c2.4-0.6,4.7-1.4,7-2.3
				c-6.4-19.2-12.7-38.4-19.5-57.5C94.6,568.7,92.2,569.5,89.9,570.3z"/>
		</g>
		<path d="M638.2,393.6c5.6-3.2,14.3-3.4,16.8,3.8c3.1,7.4-4.2,13.1-10.9,14C642.2,405.4,640.2,399.5,638.2,393.6z"/>
		<g>
			<path d="M338.8,476.1c20.4-3.8,42.1,9.3,48.4,29c10.6,27.4-13.6,59.8-42.9,57.6c-21.1-0.3-40-18.1-41.8-39.1
				C299.7,501.5,316.7,479.4,338.8,476.1z M345.7,493.4c3.2,0.5,4.5-2.9,4.3-5.5c-1,0-2.9,0-3.9,0c0,0.5-0.1,1.4-0.1,1.9l2.1,0.3
				c-0.4,0.4-1.2,1.2-1.7,1.6c-0.5-0.2-1.5-0.6-1.9-0.8c-0.9-5.6-0.6-12.2,5.6-8.5C344.1,471,337.7,491.2,345.7,493.4z M329.1,482.4
				l0.5,1.8c0.7-0.2,2-0.6,2.6-0.8c1.2,3.3,2.4,6.6,3.5,9.9c-1.8,0.3-2.5,1.2-2.1,2.9c2.5-0.8,4.9-1.6,7.3-2.5
				c-0.2-0.4-0.5-1.4-0.7-1.8c-0.8,0.3-1.7,0.6-2.5,0.9c-1.2-3.3-2.4-6.6-3.6-10c0.6-0.2,1.9-0.7,2.5-1c-0.1-0.4-0.4-1.4-0.6-1.8
				C333.7,480.7,331.4,481.5,329.1,482.4z M351.1,494c1.8-0.2,3.3-1.4,5.2-0.9c0.2,0.7,0.5,2.2,0.7,2.9c3.4-3.4,2-10.2,3.4-15
				C355.4,482.3,354.1,490,351.1,494z M317.8,490.1c0.3,0.4,1,1.1,1.3,1.5c0.7-0.6,1.4-1.1,2.1-1.7c2.7,3.3,5.3,6.8,8.2,10
				c2-4-4.9-7.4-6.6-11.1c1.3-1,2.1-2.1,1-3.5C321.8,486.8,319.8,488.5,317.8,490.1z M359.4,496.9c3.9,1.7,5.5-5.5,8.5-7.5
				c-0.1,0.8-0.3,2.4-0.4,3.2c1-0.4,2-0.7,3-1.1c-1.3,3.2-8.1,6.5-5.4,9.8c3.3-3.8,6.3-7.7,9.4-11.7c-1.4-1.2-3-0.9-4.5-0.2
				c0.3-1.7,0.4-3.3-1.1-4.4C365.5,489,362.5,493,359.4,496.9z M377.1,496c0.5,0.8,0.9,1.6,1.4,2.4c-3,1.8-6,3.7-9,5.5
				c-0.4-0.6-1.1-1.8-1.5-2.4c-3.2,1.9,1.7,5.1,2.3,7.4c0.4-0.2,1.3-0.7,1.7-0.9c-0.4-0.6-1-1.8-1.4-2.4c3-1.8,6-3.7,9-5.5
				c0.4,0.6,1.1,1.8,1.5,2.4c3.2-1.9-1.6-5.1-2.3-7.4L377.1,496z M311.1,498.8c4,2.8,8,5.6,11.9,8.4c1.4-2,2.8-4.1,4.2-6.1
				c-0.4-0.3-1.2-0.8-1.6-1c-1,1.5-2.1,2.9-3.1,4.4c-3.4-2.5-6.9-4.8-10.3-7.3C311.9,497.6,311.4,498.4,311.1,498.8z M307.2,506.4
				c3.7,2.3,10.5,1.1,12.2,5.3c-3.4,3-8.8-1.6-13.1-1.7c1,4,9.1,4.5,13.1,4.6C326.3,508.2,310.7,503.6,307.2,506.4z M370.9,510.5
				c0.1,0.5,0.3,1.4,0.4,1.9c2.9-0.6,5.7-1.2,8.6-1.7c-2.8,2.1-6.1,3.5-8.4,6.1c4.9,1.4,10.2-1.6,15.2-2.1c-0.1-0.5-0.4-1.4-0.5-1.9
				c-2.9,0.6-5.8,1.2-8.7,1.8c2.3-2.5,7.9-3.1,7.9-7C380.6,508.4,375.7,509.5,370.9,510.5z M331.5,510.8c0,0.5,0,1.4,0,1.9
				c0.7,0,2,0,2.7,0c0,4.2,0,8.4,0,12.6c0.5,0,1.4,0,1.9,0c0-4.2,0-8.3,0-12.5C343.2,511.6,334.3,510,331.5,510.8z M341.4,510.8
				c0.9,4.8-1.9,11.6,1.6,15c0.3-2.2,0.3-4.5,0.2-6.8c1.2,0,2.3,0,3.5,0c0,2.2,0,4.5,0.3,6.8c3.5-3.5,0.8-10.2,1.6-15
				c-0.5,0-1.4,0-1.9,0c0,2.1,0,4.1,0,6.2c-0.9,0-2.6,0-3.5,0c0-2.1,0-4.2,0-6.2C342.8,510.8,341.8,510.8,341.4,510.8z M351.5,510.8
				c0.3,4.8-0.1,9.7,0.2,14.5c2.4,0,4.9,0,7.3,0l0-1.9c-1.8,0-3.7,0-5.5,0c0-1.5,0-2.9,0-4.4c1.5,0,3,0,4.5,0l0-2c-1.5,0-3,0-4.5,0
				c0-1.5,0-2.9,0-4.4c1.8,0,3.6,0,5.5,0c0-0.5,0-1.4,0-1.9C356.5,510.8,354,510.8,351.5,510.8z M305.2,518.9
				c0.2,1.8,1.5,2.8,3.1,3.4c-0.8,0.6-1.6,1.2-2.4,1.8c0.1,0.5,0.1,1.5,0.2,2c4.8-0.3,9.6-0.7,14.4-1.1c0-0.5,0-1.5,0-1.9
				c-3.7,0.2-7.3,0.5-11,0.8c0.7-0.5,2.1-1.4,2.8-1.9c-1-0.5-2.1-1.1-3.1-1.6c3.6-0.2,7.2-0.5,10.8-0.8c0-0.5,0-1.5,0-2
				C315.1,518.1,310.2,518.4,305.2,518.9z M376.8,527.7c0.2-1.4,0.4-2.7,0.6-4.1c-0.7,0.5-2.2,1.5-2.9,2c-2.4-6.2,7-2.7,10.2-1.9
				c-0.4,2-2.4,2.9-2.8,4.8c8.2-0.5,3.3-10.2-3.1-8.2C371.9,516.7,369,528,376.8,527.7z M328.2,530.3c-0.4,0.4-1.3,1.2-1.7,1.7
				c0.7,0.8,1.5,1.7,2.2,2.6c-3.9,3.6-7.9,7.2-11.9,10.8c0.4,0.5,1.2,1.4,1.6,1.9c4-3.6,8-7.3,12-10.9c0.8,0.8,1.6,1.7,2.3,2.5
				c0.5-0.4,1.4-1.2,1.9-1.6C332.5,534.9,330.4,532.5,328.2,530.3z M314.9,532.1 M361.5,533.3c0.3,1.3,0.6,2.5,0.9,3.8
				c-1.3-0.4-2.6-0.7-3.9-1.1c-0.5,0.5-1.4,1.4-1.8,1.9c4.2,4.5,8.5,9,12.8,13.3c0.6-0.6,1.2-1.1,1.8-1.7c-3.3-3.4-6.5-6.7-9.7-10.2
				c1.4,0.4,2.8,0.8,4.2,1.2c-0.2-1-0.7-3.1-1-4.1c3.3,3.2,6.4,6.7,9.7,10c0.4-0.4,1.3-1.3,1.8-1.7c-4.3-4.5-8.6-8.9-12.8-13.4
				C363,531.9,362,532.9,361.5,533.3z M375.3,536c0.5-0.3,1.7-1,2.2-1.4C378,528.3,369.5,533.2,375.3,536z M335.9,538.2
				c-1.9,5.9-3.7,11.7-5.5,17.6c3,1,6,1.9,9,2.8c0.2-0.6,0.5-1.7,0.7-2.3c-2.2-0.7-4.4-1.4-6.6-2.1c0.5-1.8,1.1-3.6,1.6-5.3
				c1.8,0.6,3.7,1.1,5.5,1.7c0.2-0.6,0.6-1.7,0.8-2.3c-1.8-0.6-3.7-1.2-5.5-1.8c0.6-1.8,1.1-3.5,1.7-5.3c2.2,0.7,4.4,1.4,6.7,2
				c0.2-0.6,0.5-1.7,0.6-2.3C341.8,540,338.9,539,335.9,538.2z M349.7,539.9c0.1,6.4,0.3,12.8,0.7,19.2c1.9-0.2,2.8-1.2,2.4-3.1
				c1-0.2,2.1-0.4,3.1-0.6c0.6,1.8,1.9,2.3,3.6,1.6c-2.4-5.8-5.1-11.5-7.6-17.2C351.4,539.8,350.3,539.9,349.7,539.9z"/>
		</g>
		<path d="M357.3,487.4"/>
		<path d="M352.4,547c0.9,2,1.8,3.9,2.7,5.9c-0.7,0.1-2,0.4-2.6,0.6C352.5,551.4,352.4,549.2,352.4,547z"/>
		<path d="M137.2,579.9c4,6,7.5,12.2,10.7,18.7c-2.7,1.1-5.4,2-8.2,2.8C138.8,594.3,137.1,587.1,137.2,579.9z"/>
	</g>
	<g>
		<path class="st2" d="M595.6,99.1c34.7-11.8,69.4-23.7,104.2-35.4c0.4,91.5-0.7,183.1-0.8,274.6c-33.6,11.2-67.1,23.3-101,33.8
			C597.4,281.1,596.2,190.1,595.6,99.1z"/>
		<path class="st2" d="M480.8,137.2c33.7-11.5,67.4-22.9,101.1-34.2c1.1,85.6,2.2,171.5,1.8,257.1c-34.7-43.4-68.3-87.7-102.5-131.5
			C480.9,198.1,480.8,167.7,480.8,137.2z"/>
		<path class="st2" d="M366.2,176.7c15.4-5,30.7-10.8,46.1-15.2c56.2,72.1,112.4,144.3,168.3,216.6c-33.6,11.9-67.4,23.1-101.2,34.6
			c-9.9-13-19.5-26-29.5-38.9c-27.1,9.1-54.1,18.8-81.3,27.3c-0.2-17.9-0.4-35.9-0.6-53.8c16.3-5.8,32.8-11.4,49.1-17.1
			c-16.6-22.2-33.7-44.1-49.9-66.6C366.7,234.6,366.8,205.6,366.2,176.7z"/>
		<path class="st2" d="M253.9,215.1c33.1-11.2,66.1-22.6,99.2-33.5c1.2,84.3,1.8,168.7,2.9,253.1c-0.1,1.7,0.6,3.9-1.1,5
			c-32.9-42-66.1-83.8-98.5-126.1C255.3,280.8,254.6,247.9,253.9,215.1z"/>
		<path class="st2" d="M67.1,278.9c34.8-11.7,69.5-23.7,104.4-35.2c0.1,91.5-0.6,183-0.9,274.6c-33.8,11.5-67.5,23-101.4,34.3
			C68.1,461.4,67.7,370.1,67.1,278.9z"/>
		<path class="st2" d="M184.8,245.4c1.8,0.4,2.8,1.9,3.8,3.2c53.9,69.3,108.6,138,162.2,207.6c-33.5,11.6-67.2,22.8-100.8,34.2
			c-22.1-28.6-44.2-57.1-65.9-86C184.3,351.5,184.5,298.5,184.8,245.4z"/>
	</g>
</g>
</svg>
