<?xml version="1.0" encoding="utf-8"?>
<!-- Generator: Adobe Illustrator 23.0.4, SVG Export Plug-In . SVG Version: 6.00 Build 0)  -->
<svg version="1.1" id="Layer_1" xmlns="http://www.w3.org/2000/svg" xmlns:xlink="http://www.w3.org/1999/xlink" x="0px" y="0px"
	 viewBox="0 0 265 265" width="800px" height="800px" style="enable-background:new 0 0 265 265;" xml:space="preserve">
<style type="text/css">
	.st0{fill:#FFFFFF;}
	.st1{fill:url(#SVGID_1_);}
	.st2{fill:url(#SVGID_2_);}
	.st3{fill:url(#SVGID_3_);}
	.st4{fill:url(#SVGID_4_);}
</style>
<path d="M142.6,211.2c21.2-1.2,41.1-5.5,58.1-12.6c0.1,0,0.2-0.1,0.3-0.1c14.9-6.2,27.5-14.5,37-24.4l1.7-1.8l14.3,0
	c5.8,0,10.5-4.7,10.5-10.5v-31.2c0-3.2-1.4-6-3.6-8c1.4-1.8,2.2-4,2.2-6.4v-12.1c0-4.6-3-8.5-7.1-10c0-0.4,0-0.8,0-1.2
	c0-8.3-6.8-15.1-15.1-15.1c-3.2,0-6.1,1-8.5,2.6l-3.2,2.4h-0.1c-20.9-16.7-51.8-27.1-86.6-29.1l-18.7-0.2
	C80.7,55.1,43,69.5,22.2,92.8l-0.7,0.8H10.3l-0.3,0c-5.5,0.4-9.8,5-9.8,10.6v57.8c0,5.8,4.7,10.6,10.6,10.6h11.6l0.2,0.3
	c14.5,16,37,27.7,63.7,33.9c11.8,2.7,24.5,4.4,37.6,4.8 M131.8,212 M64.7,122.6h1.1v0.9l-0.5-0.5L64.7,122.6z"/>
<path class="st0" d="M241,87.2c-3.1,0-5.7,2.6-5.7,5.7c0,3.1,2.6,5.7,5.7,5.7c3.1,0,5.7-2.6,5.7-5.7C246.7,89.8,244.1,87.2,241,87.2
	z M241,96.9c-2.1,0-3.8-1.5-3.8-4c0-2.5,1.7-4,3.8-4c2.1,0,3.8,1.5,3.8,4C244.8,95.4,243.1,96.9,241,96.9z M243.6,91.8
	c0-1.5-1-1.9-2.6-1.9h-2.3V96h1.4v-2.4h0.3l1.4,2.4h1.6l-1.5-2.5C242.9,93.4,243.6,93,243.6,91.8z M241.2,92.4h-1.2v-1.3h0.9
	c0.5,0,1.1,0,1.1,0.6C242.1,92.2,241.8,92.4,241.2,92.4z"/>
<g>
	<linearGradient id="SVGID_1_" gradientUnits="userSpaceOnUse" x1="9.5464" y1="133.024" x2="254.1805" y2="133.024">
		<stop  offset="0" style="stop-color:#263A97"/>
		<stop  offset="0.2195" style="stop-color:#73CAD7"/>
		<stop  offset="0.452" style="stop-color:#95D160"/>
		<stop  offset="0.7066" style="stop-color:#E7F416"/>
		<stop  offset="0.9997" style="stop-color:#E81100"/>
	</linearGradient>
	<path class="st1" d="M210,122.1c0.6,2.8,0.9,5.6,1,8.4h-10.6v4.1H211c-0.1,3.2-0.5,6.3-1.2,9.4c0.1,0,0.3,0,0.4,0
		c0.9,0,1.9,0,2.8,0c0.6-3.1,1-6.2,1.1-9.4h2.7v-4c0,0,0,0,0-0.1h-2.7c-0.1-2.9-0.4-5.7-0.9-8.4l-3,0
		C210.1,122.1,210,122.1,210,122.1z"/>
	<linearGradient id="SVGID_2_" gradientUnits="userSpaceOnUse" x1="9.5464" y1="154.1159" x2="254.1805" y2="154.1159">
		<stop  offset="0" style="stop-color:#263A97"/>
		<stop  offset="0.2195" style="stop-color:#73CAD7"/>
		<stop  offset="0.452" style="stop-color:#95D160"/>
		<stop  offset="0.7066" style="stop-color:#E7F416"/>
		<stop  offset="0.9997" style="stop-color:#E81100"/>
	</linearGradient>
	<path class="st2" d="M119.6,156.2H142c-1.4-1.4-2.8-2.7-4.3-4.1h-18.1V156.2z"/>
	<linearGradient id="SVGID_3_" gradientUnits="userSpaceOnUse" x1="9.5464" y1="90.7406" x2="254.1805" y2="90.7406">
		<stop  offset="0" style="stop-color:#263A97"/>
		<stop  offset="0.2195" style="stop-color:#73CAD7"/>
		<stop  offset="0.452" style="stop-color:#95D160"/>
		<stop  offset="0.7066" style="stop-color:#E7F416"/>
		<stop  offset="0.9997" style="stop-color:#E81100"/>
	</linearGradient>
	<path class="st3" d="M31,100.1c0.5,0.4,0.9,0.8,1.4,1.2c3.2-3.3,6.8-6.4,10.9-9.3h20.1c-4.5,5.2-8.1,11-10.8,17.2H41.7
		c1.6,1.4,3.2,2.7,4.8,4.1H51c-0.3,1-0.6,2-0.9,3c0.9,0.8,1.8,1.5,2.7,2.3c0.5-1.8,1.1-3.5,1.7-5.3h16.1v-4.1H56.2
		c3-6.3,7.2-12.1,12.3-17.2h18.8c-1.1,2-2.1,4.1-3,6.2h3.8c1.1-2.2,2.2-4.3,3.4-6.2h20.2c-0.5,2-0.9,4-1.3,6.1c1.1,0,2.2,0,3.3,0
		c0.4-2.1,0.9-4.2,1.4-6.1h31.4c0.5,2,1,4.2,1.4,6.4c1.1,0.1,2.2,0.2,3.4,0.3c-0.4-2.3-0.9-4.5-1.4-6.7h20.2
		c3.2,5.2,5.9,10.9,7.8,17.2h-3.8c0.7,0.9,1.4,1.9,2,3c1.1-2.1,2.6-3.9,4.4-5.6c-1.6-5.2-3.7-10.1-6.2-14.6h18.8
		c2.2,2.2,4.2,4.5,6,6.9c1.4-0.2,2.8-0.3,4.1-0.4c-1.5-2.2-3.1-4.4-4.9-6.4h19.3c0.2,0,0.4,0,0.6-0.1c2.8,2,5.4,4.1,7.8,6.3l5.7,0
		c-19.6-21.2-57.1-35.3-101-35.3h0C86.4,62.9,48.6,77.3,29.2,99C29.8,99.3,30.5,99.7,31,100.1z M212.4,87.9h-17.6
		c-6.1-6.1-13.5-11.4-21.7-15.4C188,76,201.4,81.3,212.4,87.9z M188.9,87.9h-16.9c-4.4-6.9-9.8-12.6-16-16.9
		C168.7,74.4,179.9,80.3,188.9,87.9z M167.5,87.9H149c-2.2-8.1-5.1-14.6-8.4-18.9C151.1,71.6,160.4,78.4,167.5,87.9z M130.9,67.8
		c5.7,0,10.9,7.8,14.6,20.1h-29.2C120.1,75.6,125.3,67.8,130.9,67.8z M112.8,87.9H94.3c7.1-9.5,16.4-16.3,26.8-18.9
		C117.9,73.3,115,79.9,112.8,87.9z M89.8,87.9H72.9c9-7.6,20.2-13.5,32.8-16.9C99.6,75.3,94.2,81.1,89.8,87.9z M88.8,72.5
		c-8.3,4.1-15.6,9.3-21.8,15.4H49.5C60.4,81.3,73.8,76,88.8,72.5z"/>
	<linearGradient id="SVGID_4_" gradientUnits="userSpaceOnUse" x1="9.5464" y1="175.7916" x2="254.1805" y2="175.7916">
		<stop  offset="0" style="stop-color:#263A97"/>
		<stop  offset="0.2195" style="stop-color:#73CAD7"/>
		<stop  offset="0.452" style="stop-color:#95D160"/>
		<stop  offset="0.7066" style="stop-color:#E7F416"/>
		<stop  offset="0.9997" style="stop-color:#E81100"/>
	</linearGradient>
	<path class="st4" d="M228.1,167.7c-0.9,0-1.8,0-2.7,0c-2.4,2.1-5,4.2-7.8,6.1c-0.3-0.2-0.7-0.4-1.2-0.4h-18.2
		c1.6-1.9,3.1-3.8,4.5-5.8c-1.4-0.1-2.8-0.2-4.2-0.4c-1.7,2.2-3.5,4.2-5.5,6.2h-18.7c1.2-2.1,2.2-4.2,3.2-6.4
		c-0.3,0.1-0.7,0.3-1,0.3c0,0-0.2,0.1-0.2,0.1c-0.3,0.1-1.1,0.3-2,0.3l-0.9,0c-1,2-2.1,3.9-3.2,5.7H150c0.6-2.5,1.2-5.2,1.6-8
		c0,0-0.1-0.1-0.1-0.1c-0.9-0.9-1.8-1.7-2.7-2.6c-0.6,3.8-1.4,7.4-2.2,10.7h-31.3c-0.5-1.8-0.9-3.7-1.3-5.6c-0.1,0-0.2,0-0.2,0
		l-3.1,0c0.4,1.9,0.8,3.8,1.2,5.6H91.7c-1.1-1.8-2.1-3.6-3.1-5.5l-3.9,0c0.9,1.9,1.8,3.7,2.7,5.5H68.8c-5.2-5.1-9.4-10.9-12.5-17.2
		h1.8c-2.6-2.2-5.3-4.5-7.9-6.7c0.3,0.9,0.5,1.8,0.8,2.7H31.7v4.1h20.9c2.7,6.2,6.4,12,10.9,17.2H43.7c-4.6-3.2-8.6-6.7-12.1-10.4
		c-0.2,1.4-1,2.6-2.1,3.5c19.5,21.5,57.2,35.7,101.4,35.7c43.4,0,80.5-13.7,100.3-34.5L228.1,167.7z M49.9,177.4h17.5
		c6.1,6,13.3,11.1,21.5,15.2C74.1,189.2,60.8,183.9,49.9,177.4z M73.2,177.4H90c4.4,6.7,9.7,12.4,15.8,16.6
		C93.3,190.7,82.2,184.9,73.2,177.4z M116.6,194.7c-8.5-3.2-16.1-9.2-22.1-17.2h18.3c2,7.1,4.5,13,7.3,17.2H116.6z M125.3,194.7
		c-3.4-3.2-6.4-9.3-8.9-17.2h29c-2.4,7.9-5.5,14-8.9,17.2H125.3z M141.7,194.7c2.8-4.2,5.3-10.1,7.3-17.2h18.3
		c-6,8-13.6,14-22.1,17.2H141.7z M171.9,177.4h16.7c-8.9,7.5-20,13.2-32.5,16.6C162.1,189.8,167.5,184.2,171.9,177.4z M173,192.6
		c8.1-4,15.4-9.2,21.5-15.2h17.5C201,183.9,187.8,189.1,173,192.6z"/>
</g>
<g>
	<path class="st0" d="M114.9,161.9c0,0.7-0.5,1.2-1.2,1.2l-15.3,0c-0.7,0-1.2-0.5-1.2-1.2v-57.8c0-0.7,0.5-1.2,1.2-1.2
		c0.3,0,29.5-0.1,44.2,0c5.6,0,12.2,0.4,18.4,2.8c5.7,2.2,9.3,5.2,11.4,9.5c2.3,4.8,2.6,10.5,0.8,15.3c-1.8,4.7-5.4,8.3-10.5,10.4
		c-1.8,0.8-3.7,1.3-5.5,1.9c-0.2,0.1-0.4,0.1-0.6,0.2l1.3,1.3c2.4,2.3,4.9,4.6,7.4,6.9c2.5,2.3,4.9,4.6,7.5,6.9l3.1,2.6
		c0.3,0.3,0.5,0.8,0.3,1.2s-0.5,0.8-0.9,0.9c-0.1,0-0.3,0.1-0.4,0.1c-0.2,0.1-0.5,0.1-0.8,0.1l-1.3,0c-2.2,0-4.4,0-6.6,0
		c-3.1,0-6.2,0-9.4,0c-0.9,0-1.7-0.5-2.2-1c-6-5.8-11.9-11.3-17.8-17.1c-0.4-0.4-0.7-0.5-1.1-0.5c-5.2,0-8,0-12.5,0l-2.5,0
		c-0.7,0-1.2-0.5-1.2-1.2v-12.1c0-0.3,0.1-0.6,0.4-0.8c0.2-0.2,0.5-0.3,0.8-0.3c0,0,0,0,0,0l5.1,0c6.5,0,11.5-0.1,18.8-0.1
		c2.3,0,4.9-0.4,7.9-1c2.8-0.6,4.1-2.2,4.2-5.1c0-2.9-1.1-4.4-4-5.3c-3.3-1-6.8-1.1-10.4-1.1c-6.5,0-13,0-19.5,0l-7.9,0L114.9,161.9
		L114.9,161.9z"/>
	<path class="st0" d="M210.1,117.4c-3.6,0-7.1,0.1-10.4,1.1c-2.8,0.9-4,2.3-4,5.1c0,0.1,0,0.2,0,0.2v18.4c0,0.1,0,0.2,0,0.2
		c0,2.7,1.2,4.2,4,5.1c3.3,1,6.8,1.1,10.4,1.1c6.5,0,13,0,19.5,0l7.9,0v-7c-0.5,0-1,0-1.5,0l-13.4,0c-0.7,0-1.2-0.5-1.2-1.2v-9.9
		c0-0.7,0.5-1.2,1.2-1.2c0,0,31.4-0.2,31.4,0c0.7,0,1.2,0.5,1.2,1.2v31.2c0,0.7-0.5,1.2-1.2,1.2l-13.6,0c-4.1,0-8.2,0-12.3,0
		c-6.1,0-12.2,0-18.3,0c-5.5,0-12.1,0.2-18.5-2.3c-5.7-2.2-9.2-5.5-11.3-9.8c-1.2-2.5-1.9-5.3-2-8.2c0,0,0-0.1,0-0.1v-19.5
		c0-0.1,0-0.2,0.1-0.3c0.2-2.7,0.8-5.3,1.9-7.6c2.1-4.3,5.7-7.3,11.4-9.5c6.4-2.4,12.9-2.8,18.4-2.8c0,0,42.6,0,42.7,0
		c0.7,0,1.2,0.5,1.2,1.2v12.1c0,0.7-0.5,1.2-1.2,1.2L210.1,117.4z"/>
	<path class="st0" d="M25.7,102.9c0.8,0,1.7,0.3,2.3,0.8c8.5,7.2,17.1,14.5,25.6,21.7l21.6,18.4v-39.7c0-0.7,0.5-1.2,1.2-1.2h15.2
		c0.7,0,1.2,0.5,1.2,1.2V162c0,0.7-0.5,1.2-1.2,1.2l-4.5,0c-1.1,0-2.3,0-3.4,0c-2.9,0-5.7,0-8.6,0c-0.8,0-1.8-0.3-2.4-0.9
		c-8.2-7-16.4-14-24.6-21L27,123.4v38.5c0,0.7-0.5,1.2-1.2,1.2H10.7c-0.7,0-1.2-0.5-1.2-1.2v-57.8c0-0.6,0.4-1.2,1.1-1.2L25.7,102.9
		z"/>
</g>
</svg>
